# xmcd
# Copyright (C) 1995-1998 Ti Kan
#
# Track frame offsets:
#       150
#       29271
#       45715
#       65125
#       81112
#       97198
#       121593
#       142615
#       167091
#
# Disc length: 2542 seconds
#
# Revision: 0
# Processed by: cddbd v1.5.2PL0 Copyright (c) Steve Scherf et al.
# Submitted via: CD-Import v1.0
#
DISCID=7009ec09
DTITLE=Schnitzer - The Debut Of The Quartet
DYEAR=09
DGENRE=
TTITLE0=I'll Shine
TTITLE1=Eleven Golden Antilopes
TTITLE2=Received Your Letter
TTITLE3=Razer
TTITLE4=Ether Dome
TTITLE5=Ride And Crash
TTITLE6=12:30
TTITLE7=Lie Down
TTITLE8=Enter Return Undo
EXTD=
EXTT0=
EXTT1=
EXTT2=
EXTT3=
EXTT4=
EXTT5=
EXTT6=
EXTT7=
EXTT8=
PLAYORDER=
